Coordinates
version=1
nRows=16
nColumns=40
inDegrees=yes

Units are S.I. units (second, meters, Newtons, ...)
Angles are in degrees.

endheader
time	pelvis_tilt	pelvis_list	pelvis_rotation	pelvis_tx	pelvis_ty	pelvis_tz	hip_flexion_r	hip_adduction_r	hip_rotation_r	knee_angle_r	knee_angle_r_beta	ankle_angle_r	subtalar_angle_r	mtp_angle_r	hip_flexion_l	hip_adduction_l	hip_rotation_l	knee_angle_l	knee_angle_l_beta	ankle_angle_l	subtalar_angle_l	mtp_angle_l	lumbar_extension	lumbar_bending	lumbar_rotation	arm_flex_r	arm_add_r	arm_rot_r	elbow_flex_r	pro_sup_r	wrist_flex_r	wrist_dev_r	arm_flex_l	arm_add_l	arm_rot_l	elbow_flex_l	pro_sup_l	wrist_flex_l	wrist_dev_l
     13.45414286	     -4.97605894	     -5.45140495	      2.90796148	      0.97173228	      0.92918549	      0.49467103	      9.61254072	      4.46799360	    -17.84921330	     13.91874989	     13.91874989	     11.68340182	      3.19786841	     -3.08083206	     36.91074745	    -13.50383543	     -0.50251197	     47.94207718	     47.94207718	     10.61160328	    -15.53308109	      9.81997477	    -11.96364410	      6.87247819	      5.37349014	     29.22036836	    -16.83890520	     -3.85736639	     48.97912249	     45.73243403	      0.00000000	      0.00000000	     -6.38609127	     -7.37966102	     -7.87544042	     26.88742176	     47.28385203	      0.00000000	      0.00000000
     13.46578571	     -5.01018965	     -5.53326320	      2.98551048	      0.97029588	      0.92840545	      0.49408189	      9.06252256	      4.63603446	    -17.56198023	     13.68439848	     13.68439848	     12.03384527	      2.85990471	     -3.28102025	     37.32389219	    -13.26667956	     -0.28588061	     45.14945981	     45.14945981	     10.50190879	    -14.86482806	     10.00663228	    -12.02725244	      6.96378214	      5.27521793	     31.23591974	    -16.76911470	     -3.65010312	     51.21487519	     45.65075304	      0.00000000	      0.00000000	     -7.81022232	     -7.45755082	     -7.96952333	     26.05865047	     47.26004074	      0.00000000	      0.00000000
     13.47742857	     -5.03785394	     -5.62978079	      3.10080410	      0.96894028	      0.92764921	      0.49336008	      8.52261244	      4.80511781	    -17.30077506	     13.48494485	     13.48494485	     12.36338412	      2.44715578	     -3.50203675	     37.63959255	    -13.00390531	     -0.07069804	     42.28528994	     42.28528994	     10.43059925	    -14.13384556	     10.11592317	    -12.06011035	      7.08869386	      5.17694340	     33.04199208	    -16.70636091	     -3.26885845	     53.89014766	     45.54607789	      0.00000000	      0.00000000	     -9.16730790	     -7.52384029	     -8.04314159	     25.33788888	     47.23296327	      0.00000000	      0.00000000
     13.48907143	     -5.12524330	     -5.79318415	      3.23321559	      0.96758512	      0.92680383	      0.49258421	      8.05094301	      5.04192099	    -16.99298734	     13.26728089	     13.26728089	     12.51611097	      1.92699363	     -4.01516876	     37.95516178	    -12.78157025	      0.15227547	     39.38335005	     39.38335005	     10.14960510	    -13.39220612	      9.58086178	    -12.14066073	      7.24683260	      5.68781941	     33.67049699	    -17.80740995	     -1.94820897	     59.13749220	     45.31252722	      0.00000000	      0.00000000	    -10.13636268	     -7.55716325	     -8.17023387	     24.99297942	     47.18158972	      0.00000000	      0.00000000
     13.50071429	     -5.22171814	     -5.84595263	      3.39829308	      0.96634611	      0.92615771	      0.49164570	      7.60032791	      5.09850492	    -16.94089155	     13.13523154	     13.13523154	     12.83534344	      1.79118021	     -4.11480378	     38.13402720	    -12.44376992	      0.18855427	     36.44680360	     36.44680360	     10.15843975	    -12.46592419	      9.92241780	    -12.07361199	      7.23782204	      5.64935911	     35.51136769	    -17.62455392	     -1.99087932	     60.90489544	     45.26282071	      0.00000000	      0.00000000	    -11.23771080	     -7.60417535	     -8.14651464	     24.46963529	     47.14935968	      0.00000000	      0.00000000
     13.51235714	     -5.23933306	     -6.00535083	      3.62427552	      0.96530228	      0.92560067	      0.49061293	      6.99938154	      5.29572717	    -16.92067176	     12.88208094	     12.88208094	     13.10353212	      1.64792622	     -4.19571802	     38.19306509	    -12.16885007	      0.24570827	     33.59980499	     33.59980499	     10.00824021	    -11.62084040	      9.90305225	    -12.19089467	      7.39840131	      5.67517673	     36.12284696	    -17.98151698	     -1.41176317	     66.51143866	     45.06660725	      0.00000000	      0.00000000	    -12.50757367	     -7.72588310	     -7.96643230	     24.50536200	     47.03745606	      0.00000000	      0.00000000
     13.52400000	     -5.28263758	     -6.03924716	      3.84060789	      0.96443867	      0.92514562	      0.48945166	      6.39466979	      5.34085270	    -16.94764458	     12.61885623	     12.61885623	     13.41354941	      1.63749455	     -4.21915807	     38.11178207	    -11.77943259	      0.06843656	     30.80019253	     30.80019253	     10.02959357	    -10.68320117	     10.35704196	    -12.14191914	      7.36373121	      5.29330511	     37.75772913	    -17.40899127	     -1.42231897	     68.83691564	     44.99977170	      0.00000000	      0.00000000	    -13.65784741	     -7.77242912	     -7.87709353	     24.02941922	     46.98980622	      0.00000000	      0.00000000
     13.53564286	     -5.36547805	     -6.17972955	      4.10255746	      0.96372330	      0.92452907	      0.48816666	      5.77301221	      5.49151198	    -17.15048572	     12.25818811	     12.25818811	     13.74024497	      1.89419864	     -4.12440639	     38.12374666	    -11.46115396	     -0.12593233	     28.34422418	     28.34422418	     10.08010042	     -9.76715850	     10.94691506	    -12.13804079	      7.46170462	      5.35978119	     38.28864857	    -17.65232523	     -1.27155936	     73.99270977	     44.84687438	      0.00000000	      0.00000000	    -14.79685580	     -7.86855820	     -7.64752993	     24.47999707	     46.88298707	      0.00000000	      0.00000000
     13.54728571	     -5.42681505	     -6.24627620	      4.34053247	      0.96323491	      0.92398263	      0.48680811	      5.08303225	      5.57335238	    -17.33201767	     11.85191353	     11.85191353	     14.06621068	      2.15589271	     -3.99913865	     37.99395793	    -11.08802082	     -0.51703399	     26.09890955	     26.09890955	     10.12181773	     -8.87824721	     11.71090189	    -12.08403386	      7.45787785	      5.31023089	     39.08528487	    -17.49201375	     -1.38563874	     78.07711250	     44.74838939	      0.00000000	      0.00000000	    -15.82390761	     -7.96715113	     -7.29054525	     24.58927769	     46.76359798	      0.00000000	      0.00000000
     13.55892857	     -5.49021892	     -6.30139209	      4.56399853	      0.96299080	      0.92333645	      0.48534164	      4.34943840	      5.64766065	    -17.49264961	     11.39625294	     11.39625294	     14.42122105	      2.46017752	     -3.86299736	     37.82427953	    -10.70900355	     -0.99614014	     24.19900503	     24.19900503	     10.11725422	     -8.10236907	     12.48739456	    -11.98712077	      7.43007320	      5.21183987	     39.82530352	    -17.25156705	     -1.48037959	     82.07749259	     44.66283505	      0.00000000	      0.00000000	    -16.80615912	     -8.04847903	     -6.91529041	     24.76771498	     46.64524336	      0.00000000	      0.00000000
     13.57057143	     -5.53858759	     -6.32305119	      4.75039644	      0.96298580	      0.92262053	      0.48380942	      3.55885558	      5.70376486	    -17.55388991	     10.89288012	     10.89288012	     14.72708715	      2.67862679	     -3.80767651	     37.55763966	    -10.31439875	     -1.54728731	     22.61512086	     22.61512086	      9.90958486	     -7.50196147	     12.96539448	    -11.82416920	      7.35660101	      4.66040260	     40.98847671	    -16.39533245	     -1.31185561	     84.88020739	     44.58112701	      0.00000000	      0.00000000	    -17.85971607	     -8.00523757	     -6.85025121	     24.53507305	     46.60721051	      0.00000000	      0.00000000
     13.58221429	     -5.65123248	     -6.42243467	      4.92483566	      0.96318865	      0.92155901	      0.48219398	      2.81348785	      5.82362097	    -17.74905392	     10.37830764	     10.37830764	     15.11743842	      3.13532174	     -3.65037139	     37.41047549	     -9.99236971	     -2.00482759	     21.53921556	     21.53921556	      9.67514190	     -7.00980270	     13.36806206	    -11.64387991	      7.35725717	      4.76407011	     41.33533927	    -16.42261089	     -1.19889631	     89.58723870	     44.45690582	      0.00000000	      0.00000000	    -18.72916253	     -8.01300867	     -6.89358551	     25.16241078	     46.58039042	      0.00000000	      0.00000000
     13.59385714	     -5.73905326	     -6.43071657	      5.00720800	      0.96359283	      0.92046782	      0.48051179	      2.08239931	      5.83626890	    -17.76468179	      9.98327037	      9.98327037	     15.56354078	      3.40775480	     -3.41307661	     37.10490829	     -9.63073432	     -2.49041112	     20.71587088	     20.71587088	      9.18018205	     -6.72837605	     13.45827716	    -11.44419888	      7.25209603	      4.89045505	     41.69039155	    -16.29109862	     -1.29991091	     93.67306466	     44.37079370	      0.00000000	      0.00000000	    -19.41605100	     -8.06034312	     -6.87372260	     25.45358300	     46.54907153	      0.00000000	      0.00000000
     13.60550000	     -5.84854630	     -6.43354273	      5.05654683	      0.96421009	      0.91913589	      0.47875807	      1.38110265	      5.83523766	    -17.69191699	      9.62912016	      9.62912016	     15.99005514	      3.56328358	     -3.29659734	     36.81157749	     -9.28428347	     -2.84096287	     20.28302025	     20.28302025	      8.58887079	     -6.61314954	     13.45824766	    -11.15210241	      7.13801270	      4.51163448	     42.47390396	    -15.48016682	     -1.05241302	     96.69544650	     44.28671082	      0.00000000	      0.00000000	    -20.15684130	     -7.92610943	     -6.86491993	     25.32646787	     46.52907495	      0.00000000	      0.00000000
     13.61714286	     -5.94219170	     -6.43943486	      5.03570275	      0.96499338	      0.91764580	      0.47699854	      0.73099232	      5.80528918	    -17.57765059	      9.44293013	      9.44293013	     16.48092459	      3.65053104	     -3.22099506	     36.47479509	     -8.99361561	     -3.11333924	     20.14672363	     20.14672363	      7.87618097	     -6.64037788	     13.35948227	    -10.84429972	      7.02434379	      4.28245525	     43.19747270	    -14.86143683	     -0.77892550	     99.50831624	     44.20286077	      0.00000000	      0.00000000	    -20.74062789	     -7.81397523	     -6.91052417	     25.30344314	     46.52289466	      0.00000000	      0.00000000
     13.62878571	     -6.05894334	     -6.45233599	      4.97825912	      0.96593253	      0.91597358	      0.47511363	      0.15665431	      5.74222261	    -17.41973370	      9.39379241	      9.39379241	     17.19172652	      3.82586120	     -2.63022269	     36.11285170	     -8.70181613	     -3.11796289	     20.16091050	     20.16091050	      6.50960934	     -7.05395067	     11.85384137	    -10.61619443	      6.88961873	      5.01830868	     42.82963330	    -15.48908358	     -0.74250714	    104.55976455	     44.08554319	      0.00000000	      0.00000000	    -20.98851853	     -7.92033753	     -7.21079323	     25.95769198	     46.55705358	      0.00000000	      0.00000000
